<svg version="1.1" id="Layer_1" xmlns="http://www.w3.org/2000/svg" x="0" y="0" viewBox="0 0 256 256" style="enable-background:new 0 0 256 256" xml:space="preserve">
<style>.st0{fill:#fc5d3d}.st1{fill:#afafaf}.st2{fill:#72c2e9}.st3{fill:#fff}.st30{fill:#e8a61f}.st31{fill:#823a26}</style>
<path class="st1" d="M230.902 216.625H25.098v-8.969a5 5 0 0 1 5-5h195.804a5 5 0 0 1 5 5v8.969z"/>
<path class="st2" d="M244.667 250.125H11.333a5 5 0 0 1-5-5v-23.5a5 5 0 0 1 5-5h233.333a5 5 0 0 1 5 5v23.5a4.999 4.999 0 0 1-4.999 5z"/>
<circle class="st3" cx="27.47" cy="233.5" r="6.136"/>
<circle class="st3" cx="60.98" cy="233.5" r="6.136"/>
<circle class="st3" cx="94.49" cy="233.5" r="6.136"/>
<circle class="st3" cx="128" cy="233.5" r="6.136"/>
<circle class="st3" cx="161.51" cy="233.5" r="6.136"/>
<circle class="st3" cx="195.02" cy="233.5" r="6.136"/>
<circle class="st3" cx="228.53" cy="233.5" r="6.136"/>
<path class="st0" d="M149.96 57.607h-43.92l-5.394-18.232h54.708z"/>
<path class="st1" d="M141.135 57.607h-26.27v13.032a4.105 4.105 0 0 0 4.105 4.105h18.061a4.105 4.105 0 0 0 4.105-4.105V57.607z"/>
<path class="st2" d="M244.667 39.375H11.333a5 5 0 0 1-5-5v-23.5a5 5 0 0 1 5-5h233.333a5 5 0 0 1 5 5v23.5a4.999 4.999 0 0 1-4.999 5z"/>
<circle class="st3" cx="60.98" cy="22.75" r="6.136"/>
<circle class="st3" cx="94.49" cy="22.75" r="6.136"/>
<circle class="st3" cx="128" cy="22.75" r="6.136"/>
<circle class="st3" cx="161.51" cy="22.75" r="6.136"/>
<circle class="st3" cx="195.02" cy="22.75" r="6.136"/>
<circle class="st3" cx="228.53" cy="22.75" r="6.136"/>
<circle class="st3" cx="27.47" cy="22.75" r="6.136"/>
<path class="st30" d="M188.916 136.127H67.174c-2.853 0-5.077-2.534-4.654-5.358C65.11 113.362 80.114 100 98.252 100h59.586c18.12 0 33.143 13.353 35.733 30.769.422 2.824-1.793 5.358-4.655 5.358z"/>
<path class="st0" d="M187.115 136.127v14.789h-85.034a4.064 4.064 0 0 0-4.063 4.063v7.892c0 3.753-3.05 6.803-6.803 6.803s-6.803-3.05-6.803-6.803v-7.892a4.064 4.064 0 0 0-4.063-4.063H68.976v-14.789h118.139z"/>
<path class="st31" d="M84.412 154.977v6.795H68.976v-10.857H80.35a4.062 4.062 0 0 1 4.062 4.062zM134.557 161.772h-36.54v-6.795a4.062 4.062 0 0 1 4.062-4.062h14.94l17.538 10.857zM187.115 150.915v10.857H158.42l9.562-10.857z"/>
<path d="M202.354 169.223c-.732 5.292-3.941 9.834-8.389 12.433-7.085 4.148-16.365 2.693-21.817-3.829-5.189 7.845-15.173 9.703-22.643 5.583-6.446 9.181-19.9 9.802-27.175 1.164-8.06 7.723-21.939 5.865-27.24-4.851a13.722 13.722 0 0 1-15.924-.328 13.755 13.755 0 0 1-17.041 5.762c-8.436-3.444-11.101-13.784-5.912-20.86 1.192-1.633 3.143-2.524 5.161-2.524h23.037v1.098c0 3.753 3.05 6.803 6.803 6.803s6.803-3.05 6.803-6.803v-1.098h36.54l7.948 5.208v2.185a5.867 5.867 0 0 0 5.865 5.865 5.868 5.868 0 0 0 5.874-5.865v-2.645l4.176-4.748h37.45c4.053-.001 7.122 3.64 6.484 7.45z" style="fill:#13bf6d"/>
<path class="st30" d="M193.965 181.656v5.799c0 8.389-6.784 15.201-15.201 15.201H77.327c-8.398 0-15.201-6.794-15.201-15.201v-2.299a13.756 13.756 0 0 0 17.041-5.762 13.722 13.722 0 0 0 15.924.328c5.302 10.716 19.18 12.574 27.24 4.851 7.284 8.649 20.738 8.005 27.175-1.164 7.469 4.119 17.453 2.261 22.643-5.583 5.451 6.523 14.731 7.977 21.816 3.83z"/>
<path d="m167.982 150.915-9.562 10.857-4.176 4.748v2.645a5.869 5.869 0 0 1-5.874 5.865 5.867 5.867 0 0 1-5.865-5.865v-2.185l-7.948-5.208-17.538-10.857h50.963z" style="fill:#f0c020"/>
<path d="M27.47 242.137c4.762 0 8.636-3.874 8.636-8.637s-3.874-8.637-8.636-8.637-8.636 3.874-8.636 8.637 3.874 8.637 8.636 8.637zm0-12.274c2.005 0 3.636 1.632 3.636 3.637s-1.631 3.637-3.636 3.637-3.636-1.632-3.636-3.637 1.631-3.637 3.636-3.637zM60.98 242.137c4.762 0 8.636-3.874 8.636-8.637s-3.874-8.637-8.636-8.637-8.637 3.874-8.637 8.637 3.875 8.637 8.637 8.637zm0-12.274c2.005 0 3.636 1.632 3.636 3.637s-1.631 3.637-3.636 3.637-3.637-1.632-3.637-3.637 1.632-3.637 3.637-3.637zM94.49 242.137c4.762 0 8.637-3.874 8.637-8.637s-3.875-8.637-8.637-8.637-8.636 3.874-8.636 8.637 3.874 8.637 8.636 8.637zm0-12.274c2.005 0 3.637 1.632 3.637 3.637s-1.631 3.637-3.637 3.637c-2.005 0-3.636-1.632-3.636-3.637s1.631-3.637 3.636-3.637zM128 242.137c4.763 0 8.637-3.874 8.637-8.637s-3.874-8.637-8.637-8.637c-4.762 0-8.636 3.874-8.636 8.637s3.874 8.637 8.636 8.637zm0-12.274c2.005 0 3.637 1.632 3.637 3.637s-1.632 3.637-3.637 3.637-3.636-1.632-3.636-3.637 1.631-3.637 3.636-3.637zM161.51 242.137c4.763 0 8.637-3.874 8.637-8.637s-3.874-8.637-8.637-8.637c-4.762 0-8.636 3.874-8.636 8.637s3.874 8.637 8.636 8.637zm0-12.274c2.005 0 3.637 1.632 3.637 3.637s-1.632 3.637-3.637 3.637-3.636-1.632-3.636-3.637 1.631-3.637 3.636-3.637zM195.021 242.137c4.762 0 8.636-3.874 8.636-8.637s-3.874-8.637-8.636-8.637c-4.763 0-8.637 3.874-8.637 8.637s3.874 8.637 8.637 8.637zm0-12.274c2.005 0 3.636 1.632 3.636 3.637s-1.631 3.637-3.636 3.637-3.637-1.632-3.637-3.637 1.632-3.637 3.637-3.637zM228.53 242.137c4.763 0 8.637-3.874 8.637-8.637s-3.874-8.637-8.637-8.637-8.637 3.874-8.637 8.637 3.875 8.637 8.637 8.637zm0-12.274c2.005 0 3.637 1.632 3.637 3.637s-1.632 3.637-3.637 3.637-3.637-1.632-3.637-3.637 1.632-3.637 3.637-3.637z"/>
<circle cx="207.47" cy="202.66" r="2.5"/>
<path d="M22.6 207.66v6.465H11.333c-4.136 0-7.5 3.364-7.5 7.5v23.5c0 4.136 3.364 7.5 7.5 7.5h233.333c4.136 0 7.5-3.364 7.5-7.5v-23.5c0-4.136-3.364-7.5-7.5-7.5h-11.268v-6.465c0-4.141-3.359-7.5-7.5-7.5h-8.43a2.5 2.5 0 0 0-2.5 2.5c0 1.37 1.12 2.5 2.5 2.5h8.43a2.5 2.5 0 0 1 2.5 2.5v6.46H27.6v-6.46a2.5 2.5 0 0 1 2.5-2.5h167.37c1.37 0 2.5-1.13 2.5-2.5 0-1.38-1.13-2.5-2.5-2.5h-6.409c3.326-3.22 5.404-7.721 5.404-12.705v-4.437c4.517-3.118 7.605-8.031 8.36-13.419.869-5.327-3.376-10.327-8.955-10.327h-6.256v-20.679c3.935-.388 7.026-3.972 6.426-8.194-1.17-7.89-4.721-15.14-10.26-20.939-.921-.97-2.57-1-3.53-.08a2.503 2.503 0 0 0-.08 3.54h.01a33.478 33.478 0 0 1 8.92 18.22 2.218 2.218 0 0 1-2.18 2.49H67.17c-1.2-.01-2.336-1.038-2.18-2.47 2.43-16.341 16.73-28.66 33.26-28.66h59.59c2.87 0 5.729.359 8.5 1.08 1.32.34 2.7-.48 3.05-1.79.34-1.33-.46-2.7-1.79-3.05-3.17-.82-6.46-1.24-9.76-1.24H98.25c-19.4 0-35.432 14.302-38.2 32.899-.673 3.697 2.136 7.76 6.426 8.192v20.681h-5.101c-2.874 0-5.558 1.327-7.177 3.545-5.823 7.941-3.288 19.251 5.428 23.914 0 5.666 1.871 10.009 5.404 13.429H30.1c-4.14 0-7.5 3.36-7.5 7.5zm224.567 13.965v23.5c0 1.379-1.121 2.5-2.5 2.5H11.333a2.503 2.503 0 0 1-2.5-2.5v-23.5c0-1.379 1.122-2.5 2.5-2.5h233.333a2.502 2.502 0 0 1 2.501 2.5zm-103.292-56.736c-10.339-6.774-5.04-3.409-18.067-11.474h36.64c-4.999 5.681-1.938 2.195-10.081 11.454a2.505 2.505 0 0 0-.623 1.651v2.645a3.369 3.369 0 0 1-6.739 0v-2.186a2.5 2.5 0 0 0-1.13-2.09zm-48.357-2.019a4.308 4.308 0 0 1-4.303 4.303 4.308 4.308 0 0 1-4.303-4.303v-7.892a6.57 6.57 0 0 0-6.562-6.563h-8.875v-9.785h113.139v9.785h-82.533a6.57 6.57 0 0 0-6.563 6.562v7.893zm5-7.891c0-.862.701-1.563 1.563-1.563h14.227l2.199 1.361 7.263 4.496h-25.252v-4.294zm68.593-1.564h15.503v5.857h-20.659l5.156-5.857zm-97.635 0h8.873c.862 0 1.563.701 1.563 1.563v4.294H71.476v-5.857zM58.233 165.77c.685-.938 1.859-1.497 3.142-1.497h20.642c.686 4.524 4.629 7.9 9.198 7.9 4.566 0 8.513-3.387 9.197-7.9h33.399l6.193 4.058v.835c0 4.612 3.753 8.364 8.365 8.364 4.617 0 8.374-3.752 8.374-8.364v-1.701l2.809-3.191h36.317c2.244 0 4.349 1.869 4.007 4.607-1.692 12.251-17.487 17.3-25.811 7.344-1.095-1.308-3.098-1.146-4.003.225-4.269 6.451-12.589 8.503-19.35 4.772a2.5 2.5 0 0 0-3.254.753c-5.506 7.844-17.01 8.362-23.217.99a2.51 2.51 0 0 0-3.642-.195c-6.84 6.553-18.719 5.045-23.27-4.154a2.5 2.5 0 0 0-3.646-.959 11.257 11.257 0 0 1-13.028-.268 2.502 2.502 0 0 0-3.643.735c-2.869 4.854-8.734 6.837-13.944 4.718-6.847-2.797-9.12-11.228-4.835-17.072zm6.432 22.695c5.635.968 11.464-1.158 15.187-5.7a16.283 16.283 0 0 0 14.313.344c6.359 9.524 19.234 11.298 27.979 4.881 8.141 7.506 20.836 6.773 28.081-1.456a19.512 19.512 0 0 0 22.14-4.913 19.634 19.634 0 0 0 19.102 3.898v1.937c0 7.004-5.697 12.701-12.701 12.701H77.327c-6.664-.001-12.145-5.159-12.662-11.692zM60.98 31.387c4.762 0 8.636-3.874 8.636-8.637s-3.874-8.637-8.636-8.637-8.637 3.874-8.637 8.637 3.875 8.637 8.637 8.637zm0-12.274c2.005 0 3.636 1.632 3.636 3.637s-1.631 3.637-3.636 3.637-3.637-1.632-3.637-3.637 1.632-3.637 3.637-3.637zM103.126 22.75c0-4.763-3.875-8.637-8.637-8.637s-8.636 3.874-8.636 8.637 3.874 8.637 8.636 8.637 8.637-3.874 8.637-8.637zm-12.272 0a3.64 3.64 0 0 1 3.636-3.637c2.005 0 3.637 1.632 3.637 3.637s-1.631 3.637-3.637 3.637a3.64 3.64 0 0 1-3.636-3.637zM136.637 22.75c0-4.763-3.874-8.637-8.637-8.637-4.762 0-8.636 3.874-8.636 8.637s3.874 8.637 8.636 8.637c4.763 0 8.637-3.874 8.637-8.637zm-12.273 0c0-2.005 1.631-3.637 3.636-3.637s3.637 1.632 3.637 3.637-1.632 3.637-3.637 3.637-3.636-1.632-3.636-3.637zM161.51 31.387c4.763 0 8.637-3.874 8.637-8.637s-3.874-8.637-8.637-8.637c-4.762 0-8.636 3.874-8.636 8.637s3.874 8.637 8.636 8.637zm0-12.274c2.005 0 3.637 1.632 3.637 3.637s-1.632 3.637-3.637 3.637-3.636-1.632-3.636-3.637 1.631-3.637 3.636-3.637zM203.656 22.75c0-4.763-3.874-8.637-8.636-8.637-4.763 0-8.637 3.874-8.637 8.637s3.874 8.637 8.637 8.637c4.762 0 8.636-3.874 8.636-8.637zm-12.272 0c0-2.005 1.632-3.637 3.637-3.637s3.636 1.632 3.636 3.637-1.631 3.637-3.636 3.637-3.637-1.632-3.637-3.637zM237.167 22.75c0-4.763-3.874-8.637-8.637-8.637s-8.637 3.874-8.637 8.637 3.874 8.637 8.637 8.637 8.637-3.874 8.637-8.637zm-12.273 0c0-2.005 1.632-3.637 3.637-3.637s3.637 1.632 3.637 3.637-1.632 3.637-3.637 3.637-3.637-1.632-3.637-3.637zM47.17 39.38c0-1.38-1.13-2.5-2.5-2.5a2.5 2.5 0 0 0-2.5 2.5c0 1.37 1.12 2.49 2.5 2.49 1.37 0 2.5-1.12 2.5-2.49z"/>
<path d="M244.67 3.37H11.33c-4.13.01-7.49 3.37-7.5 7.51v23.5c.01 4.13 3.37 7.49 7.5 7.49h23.34c1.37 0 2.5-1.12 2.5-2.49 0-1.38-1.13-2.5-2.5-2.5H11.33a2.527 2.527 0 0 1-2.5-2.5v-23.5a2.53 2.53 0 0 1 2.5-2.51h233.34a2.53 2.53 0 0 1 2.5 2.51v23.5a2.527 2.527 0 0 1-2.5 2.5h-190a2.5 2.5 0 0 0-2.5 2.5c0 1.37 1.12 2.5 2.5 2.5l44.11-.002 4.863 16.438a2.499 2.499 0 0 0 2.397 1.791h6.325v10.532a6.611 6.611 0 0 0 6.604 6.604h6.53v7.967a2.5 2.5 0 1 0 5 0v-7.967h6.53a6.611 6.611 0 0 0 6.604-6.604V60.106h6.325a2.5 2.5 0 0 0 2.397-1.791l4.864-16.441 87.449-.004c4.13 0 7.49-3.36 7.5-7.49v-23.5c-.008-4.14-3.368-7.5-7.498-7.51zM138.635 70.639c0 .885-.72 1.604-1.604 1.604H118.97c-.885 0-1.604-.72-1.604-1.604V60.106h21.27v10.533zm13.372-28.764-3.914 13.231h-40.185l-3.914-13.229 48.013-.002z"/>
<path d="M134.5 51.241a2.5 2.5 0 0 0 2.5-2.5v-.5a2.5 2.5 0 1 0-5 0v.5a2.5 2.5 0 0 0 2.5 2.5zM143.417 51.241a2.5 2.5 0 0 0 2.5-2.5v-.5a2.5 2.5 0 1 0-5 0v.5a2.5 2.5 0 0 0 2.5 2.5zM112 50.741h13.375a2.5 2.5 0 1 0 0-5H112a2.5 2.5 0 1 0 0 5zM18.833 22.75c0 4.763 3.874 8.637 8.636 8.637s8.636-3.874 8.636-8.637-3.874-8.637-8.636-8.637-8.636 3.874-8.636 8.637zm12.273 0c0 2.005-1.631 3.637-3.636 3.637s-3.636-1.632-3.636-3.637 1.631-3.637 3.636-3.637 3.636 1.632 3.636 3.637zM125.5 117.864v2.232a2.5 2.5 0 1 0 5 0v-2.232a2.5 2.5 0 1 0-5 0zM109.111 113.215v2.232a2.5 2.5 0 1 0 5 0v-2.232a2.5 2.5 0 1 0-5 0zM141.889 113.215v2.232a2.5 2.5 0 1 0 5 0v-2.232a2.5 2.5 0 1 0-5 0zM71.04 174.597a2.5 2.5 0 0 0 2.5-2.5v-.763a2.5 2.5 0 1 0-5 0v.763a2.5 2.5 0 0 0 2.5 2.5zM161.748 177.387a2.5 2.5 0 0 0 2.5-2.5v-.763a2.5 2.5 0 1 0-5 0v.763a2.5 2.5 0 0 0 2.5 2.5zM109.2 182.867a2.5 2.5 0 0 0 2.5-2.5v-.764a2.5 2.5 0 1 0-5 0v.764a2.5 2.5 0 0 0 2.5 2.5zM191.775 172.555a2.5 2.5 0 0 0 2.5-2.5v-.764a2.5 2.5 0 1 0-5 0v.764a2.5 2.5 0 0 0 2.5 2.5zM117.02 174.216a2.5 2.5 0 0 0 2.5-2.5v-.764a2.5 2.5 0 1 0-5 0v.764a2.5 2.5 0 0 0 2.5 2.5zM174.899 107.14c1.166.705 2.714.313 3.42-.88.712-1.191.303-2.715-.88-3.42-1.149-.68-2.75-.26-3.43.88-.715 1.257-.253 2.769.89 3.42z"/>
</svg>
