<svg version="1.1" id="SEO" xmlns="http://www.w3.org/2000/svg" x="0" y="0" viewBox="0 0 128 128" style="enable-background:new 0 0 128 128" xml:space="preserve">
    <g id="row1">
        <path id="icon:4" d="M81 57.4c-1.6-4.1-4.1-7.7-7.3-10.5l-.1-.1c-7.3-6.5-18-8.7-27.8-4.9L17.3 53C3.4 58.5-3.6 74.2 1.8 88.2c2.6 6.7 7.7 12.1 14.4 15 3.5 1.5 7.2 2.3 11 2.3 3.3 0 6.6-.6 9.8-1.9l26.9-10.5c-3.8-1-7.4-2.6-10.7-4.9l-19.3 7.5c-4.6 1.8-9.7 1.7-14.3-.3-4.6-2-8.1-5.7-9.9-10.3-3.7-9.6 1-20.5 10.7-24.2L49 49.8c2.2-.9 4.5-1.3 6.7-1.3 2.6 0 5.1.5 7.6 1.6 4.6 2 8.1 5.7 9.9 10.3 1.6 4.1 1.7 8.5.3 12.7 1.1-.1 2.3-.4 3.3-.8l5.9-2.3c.5-4.1-.1-8.4-1.7-12.6zm-6.7 29.8c-3.7 0-7.4-.8-11-2.3-6.7-2.9-11.8-8.2-14.4-15-1.3-3.4-1.9-7-1.8-10.6l8.4.3c-.1 2.5.3 4.9 1.3 7.3 1.8 4.6 5.3 8.3 9.9 10.3 4.6 2 9.7 2.1 14.3.3l26.6-10.3c4.6-1.8 8.3-5.3 10.3-9.9 2-4.6 2.1-9.7.3-14.3-3.7-9.6-14.6-14.4-24.2-10.7l-20.7 8.1-3.1-7.9L91 24.4c13.9-5.4 29.7 1.5 35.1 15.5 2.6 6.7 2.4 14.1-.5 20.8-2.9 6.7-8.2 11.8-15 14.4L84.1 85.3c-3.2 1.2-6.5 1.9-9.8 1.9z" style="fill:#231f20"></path>
    </g>
</svg>
